<svg width="349" height="291" viewBox="0 0 349 291" fill="none" xmlns="http://www.w3.org/2000/svg">
<path opacity="0.1" d="M202.772 38.5178C180.398 37.7399 159.089 30.517 138.742 22.6131C118.394 14.7091 98.2392 5.95113 76.4013 1.76403C62.3555 -0.929402 46.2907 -1.30973 34.976 6.22082C24.0829 13.4817 20.5637 25.9807 18.6727 37.5912C17.2484 46.325 16.4118 55.5186 20.3113 63.6922C23.0216 69.3695 27.8269 74.141 31.1525 79.5797C42.7231 98.4994 34.5438 121.831 22.0087 140.305C16.1318 148.973 9.30423 157.247 4.76518 166.465C0.226126 175.682 -1.87228 186.259 2.09982 195.67C6.0339 205.006 15.4128 212.004 25.5729 216.931C46.2078 226.941 70.514 229.803 94.2325 231.425C146.72 235.017 199.485 233.462 252.111 231.906C271.587 231.328 291.147 230.744 310.306 227.732C320.947 226.059 331.929 223.407 339.656 216.997C349.46 208.861 351.89 195.086 345.318 184.883C334.297 167.771 303.834 163.522 296.122 145.159C291.883 135.049 296.236 123.791 302.4 114.415C315.619 94.3054 337.775 76.6615 338.94 53.6757C339.742 37.8885 329.091 22.0772 312.622 14.6054C295.361 6.77748 271.421 7.75943 258.693 20.7218C245.573 34.0679 222.529 39.2024 202.772 38.5178Z" fill="#83CEC5"/>
<path opacity="0.1" d="M167.021 284.186C225.042 284.186 272.077 277.808 272.077 269.941C272.077 262.073 225.042 255.696 167.021 255.696C109 255.696 61.9651 262.073 61.9651 269.941C61.9651 277.808 109 284.186 167.021 284.186Z" fill="#83CEC5"/>
<path d="M115.384 228.032C115.384 228.032 122.506 226.864 126.78 232.021C126.78 232.021 123.646 234.551 116.903 231.048L115.384 228.032Z" fill="#83CEC5"/>
<path d="M114.206 227.918C114.206 227.918 109.407 233.679 111.76 240.027C111.76 240.027 115.67 238.508 116.096 230.774L114.206 227.918Z" fill="#83CEC5"/>
<path d="M110.398 218.325C110.398 218.325 113.247 213.116 124.643 220.408C124.643 220.408 123.123 223.913 118.09 223.629C113.057 223.344 111.711 221.071 110.398 218.325Z" fill="#83CEC5"/>
<path d="M109.469 217.952C109.469 217.952 103.173 217.279 102.563 230.712C102.563 230.712 106.554 231.486 109.389 227.234C112.224 222.982 111.051 220.605 109.469 217.952Z" fill="#83CEC5"/>
<path d="M106.125 206.924C106.125 206.924 109.509 197.078 121.794 204.079C121.794 204.079 118.99 213.113 107.382 210.272L106.125 206.924Z" fill="#83CEC5"/>
<path d="M101.851 193.181C101.851 193.181 108.272 183.679 119.657 192.489C119.657 192.489 115.669 201.409 102.824 196.561L101.851 193.181Z" fill="#83CEC5"/>
<path d="M101.138 179.697C101.138 179.697 108.532 171.208 119.657 179.697C119.657 179.697 112.644 187.149 101.138 181.867V179.697Z" fill="#83CEC5"/>
<path d="M99.7139 166.397C99.7139 166.397 107.355 157.701 118.232 165.935C118.232 165.935 109.608 173.61 99.7139 168.432V166.397Z" fill="#83CEC5"/>
<path d="M100.427 154.844C100.427 154.844 108.289 142.84 118.233 150.975C118.233 150.975 109.806 161.296 100.427 157.126V154.844Z" fill="#83CEC5"/>
<path d="M101.851 141.564C101.851 141.564 110.419 129.629 120.369 138.779C120.369 138.779 110.222 149.123 101.851 143.752V141.564Z" fill="#83CEC5"/>
<path d="M105.138 129.341C105.138 129.341 115.171 118.49 123.931 122.81C123.931 122.81 113.47 134.335 104.7 132.218L105.138 129.341Z" fill="#83CEC5"/>
<path d="M108.371 117.899C108.371 117.899 120.024 104.782 126.779 109.153C126.779 109.153 118.206 119.334 107.549 120.369L108.371 117.899Z" fill="#83CEC5"/>
<path d="M113.206 104.833C113.206 104.833 123.521 93.8642 131.053 96.5873C131.053 96.5873 122.232 107.969 111.822 108.261L113.206 104.833Z" fill="#83CEC5"/>
<path d="M118.002 92.3321C118.002 92.3321 129.084 81.6796 133.902 83.5537C133.902 83.5537 125.904 95.3898 117.52 94.6994L118.002 92.3321Z" fill="#83CEC5"/>
<path d="M122.506 81.3504C122.506 81.3504 132.184 68.8871 137.463 69.8532C137.463 69.8532 131.598 80.964 122.506 82.6202V81.3504Z" fill="#83CEC5"/>
<path d="M127.129 65.9295C127.129 65.9295 135.691 56.2431 140.312 56.2676C140.312 56.2676 133.557 69.2061 126.78 69.0872L127.129 65.9295Z" fill="#83CEC5"/>
<path d="M129.964 55.4385L138.173 35.6123C138.173 35.6123 138.586 53.5343 128.916 59.1164L129.964 55.4385Z" fill="#83CEC5"/>
<path d="M133.255 33.3668C133.255 33.3668 134.871 17.0015 133.832 15.6694C133.832 15.6694 140.808 29.2619 133.189 40.598L133.255 33.3668Z" fill="#83CEC5"/>
<path d="M105.842 206.898C105.842 206.898 97.3638 201.662 91.8796 214.472C91.8796 214.472 99.4221 219.464 106.837 210.165L105.842 206.898Z" fill="#83CEC5"/>
<path d="M101.618 192.391C101.618 192.391 91.2258 187.743 86.1819 200.893C86.1819 200.893 94.2122 206.309 102.564 195.715L101.618 192.391Z" fill="#83CEC5"/>
<path d="M100.427 180.41C100.427 180.41 93.0332 171.921 81.9084 180.41C81.9084 180.41 88.918 187.861 100.427 182.579V180.41Z" fill="#83CEC5"/>
<path d="M99.7142 166.397C99.7142 166.397 92.0696 157.701 81.1958 165.935C81.1958 165.935 89.8165 173.61 99.7142 168.432V166.397Z" fill="#83CEC5"/>
<path d="M100.427 155.131C100.427 155.131 95.0407 142.718 83.333 148.056C83.333 148.056 89.6615 159.066 99.9522 157.192L100.427 155.131Z" fill="#83CEC5"/>
<path d="M102.564 141.32C102.564 141.32 97.4752 127.903 86.1819 134.123C86.1819 134.123 93.0956 146.421 102.062 143.394L102.564 141.32Z" fill="#83CEC5"/>
<path d="M106.124 129.852C106.124 129.852 103.984 115.265 94.0161 113.959C94.0161 113.959 96.131 129.339 104.794 132.477L106.124 129.852Z" fill="#83CEC5"/>
<path d="M108.973 117.881C108.973 117.881 108.12 100.324 99.7139 99.7144C99.7139 99.7144 99.9971 113.037 108.025 120.369L108.973 117.881Z" fill="#83CEC5"/>
<path d="M113.959 104.554C113.959 104.554 111.583 89.4542 103.987 87.606C103.987 87.606 104.929 102.232 113.206 108.261L113.959 104.554Z" fill="#83CEC5"/>
<path d="M118.945 92.731C118.945 92.731 118.857 77.0842 113.946 74.7856C113.946 74.7856 110.901 88.9521 117.522 94.7285L118.945 92.731Z" fill="#83CEC5"/>
<path d="M122.506 80.8676C122.506 80.8676 121.847 64.9239 117.001 62.6777C117.001 62.6777 115.339 75.2926 121.778 81.9083L122.506 80.8676Z" fill="#83CEC5"/>
<path d="M128.204 67.2064C128.204 67.2064 128.17 54.3077 124.437 51.2817C124.437 51.2817 120.726 65.4145 126.255 69.8001L128.204 67.2064Z" fill="#83CEC5"/>
<path d="M129.487 54.5946L126.5 33.4756C126.5 33.4756 122.434 50.7816 129.629 58.4042L129.487 54.5946Z" fill="#83CEC5"/>
<path d="M130.487 33.4317C130.487 33.4317 121.611 19.3721 121.797 17.8062C121.797 17.8062 122.736 32.5485 133.902 39.8857L130.487 33.4317Z" fill="#83CEC5"/>
<path d="M131.109 29.2022C131.109 29.2022 123.224 8.77584 119.657 7.12256C119.657 7.12256 130.921 13.0549 131.766 28.6186L131.109 29.2022Z" fill="#83CEC5"/>
<path d="M126.66 69.0876L126.067 68.9161C133.379 46.2646 135.206 31.8226 131.206 28.2043L131.633 27.7773C135.869 31.5952 134.152 45.8692 126.66 69.0876Z" fill="#444053"/>
<path d="M108.357 121.082L107.549 120.791C108.265 118.737 109.039 116.652 109.85 114.594C116.915 96.7078 122.93 80.0716 126.786 67.2975L127.492 66.9512C123.629 79.7495 117.723 97.0264 110.648 114.934C109.84 116.97 109.07 119.049 108.357 121.082Z" fill="#444053"/>
<path d="M125.214 244.3C125.105 244.176 114.118 231.701 106.463 210.394C101.975 197.925 99.4744 184.816 99.0548 171.556C98.529 154.979 101.977 136.469 107.884 119.657L108.526 120.415C95.2685 158.151 100.537 190.49 107.522 209.967C115.101 231.077 125.958 243.422 126.068 243.542L125.214 244.3Z" fill="#444053"/>
<path d="M224.333 100.427H222.957C222.55 100.427 222.22 100.777 222.22 101.209V124.574C222.22 125.005 222.55 125.355 222.957 125.355H224.333C224.74 125.355 225.069 125.005 225.069 124.574V101.209C225.069 100.777 224.74 100.427 224.333 100.427Z" fill="#3A3768"/>
<path d="M121.521 80.4839H121.354C120.81 80.4839 120.369 80.8484 120.369 81.298V88.2167C120.369 88.6663 120.81 89.0308 121.354 89.0308H121.521C122.065 89.0308 122.506 88.6663 122.506 88.2167V81.298C122.506 80.8484 122.065 80.4839 121.521 80.4839Z" fill="#3A3768"/>
<path d="M121.632 95.4409H121.243C120.76 95.4409 120.369 95.8074 120.369 96.2596V109.579C120.369 110.032 120.76 110.398 121.243 110.398H121.632C122.115 110.398 122.506 110.032 122.506 109.579V96.2596C122.506 95.8074 122.115 95.4409 121.632 95.4409Z" fill="#3A3768"/>
<path d="M121.588 115.384H121.287C120.78 115.384 120.369 115.73 120.369 116.157V128.856C120.369 129.283 120.78 129.629 121.287 129.629H121.588C122.095 129.629 122.506 129.283 122.506 128.856V116.157C122.506 115.73 122.095 115.384 121.588 115.384Z" fill="#3A3768"/>
<path d="M210.153 52.7061H134.573C127.122 52.7061 121.082 58.7535 121.082 66.2135V247.886C121.082 255.346 127.122 261.394 134.573 261.394H210.153C217.605 261.394 223.645 255.346 223.645 247.886V66.2135C223.645 58.7535 217.605 52.7061 210.153 52.7061Z" fill="#3A3768"/>
<path d="M209.104 58.4043H197.36V59.8173C197.36 60.6969 197.187 61.5679 196.85 62.3804C196.514 63.193 196.02 63.9313 195.398 64.5531C194.776 65.1749 194.038 65.668 193.225 66.0043C192.413 66.3405 191.542 66.5134 190.663 66.5129H153.314C152.435 66.5134 151.564 66.3405 150.751 66.0043C149.939 65.668 149.2 65.1749 148.579 64.5531C147.957 63.9313 147.463 63.193 147.127 62.3804C146.79 61.5679 146.617 60.6969 146.617 59.8173V58.4043H135.623C133.466 58.4043 131.398 59.2611 129.873 60.7863C128.348 62.3115 127.492 64.3802 127.492 66.5371V247.563C127.492 249.72 128.348 251.789 129.873 253.314C131.398 254.839 133.466 255.696 135.623 255.696H209.104C211.26 255.696 213.328 254.839 214.853 253.314C216.378 251.789 217.235 249.72 217.235 247.563V66.5509C217.236 65.4818 217.027 64.4227 216.62 63.4344C216.212 62.4461 215.613 61.5479 214.858 60.7912C214.103 60.0346 213.206 59.4343 212.218 59.0247C211.231 58.6151 210.173 58.4043 209.104 58.4043Z" fill="#83CEC5"/>
<path d="M176.017 59.1162H164.436C163.701 59.1162 163.104 59.7039 163.104 60.4288V60.6526C163.104 61.3775 163.701 61.9652 164.436 61.9652H176.017C176.753 61.9652 177.349 61.3775 177.349 60.6526V60.4288C177.349 59.7039 176.753 59.1162 176.017 59.1162Z" fill="#E6E8EC"/>
<path d="M180.911 62.6774C181.697 62.6774 182.335 61.8802 182.335 60.8968C182.335 59.9134 181.697 59.1162 180.911 59.1162C180.124 59.1162 179.486 59.9134 179.486 60.8968C179.486 61.8802 180.124 62.6774 180.911 62.6774Z" fill="#E6E8EC"/>
<path d="M259.423 44.1964C259.423 44.1964 230.486 42.4707 233.895 62.5133C233.895 62.5133 233.208 66.0565 236.466 67.6633C236.466 67.6633 236.517 66.1788 239.435 66.6849C240.474 66.8551 241.529 66.9053 242.58 66.8344C243.997 66.7423 245.345 66.1974 246.422 65.2819C246.422 65.2819 254.557 61.9596 257.719 48.8198C257.719 48.8198 260.059 45.9527 259.966 45.2155L255.083 47.2776C255.083 47.2776 256.753 50.7595 255.426 53.6538C255.426 53.6538 255.268 47.4032 254.33 47.5391C254.141 47.5663 251.794 48.7451 251.794 48.7451C251.794 48.7451 254.663 54.8088 252.498 59.2182C252.498 59.2182 253.32 51.7447 250.897 49.1833L247.46 51.1672C247.46 51.1672 250.814 57.4313 248.539 62.5439C248.539 62.5439 249.123 54.7035 246.735 51.6496L243.621 54.0513C243.621 54.0513 246.773 60.2237 244.852 64.4632C244.852 64.4632 244.601 55.3388 242.948 54.6492C242.948 54.6492 240.222 57.0271 239.806 57.9986C239.806 57.9986 241.965 62.4828 240.624 64.8471C240.624 64.8471 239.803 58.7664 239.129 58.7324C239.129 58.7324 236.414 62.7613 236.132 65.5265C236.132 65.5265 236.249 61.4195 238.473 58.3519C238.473 58.3519 235.847 58.797 234.314 60.4785C234.314 60.4785 234.737 57.6318 239.143 57.3804C239.143 57.3804 241.387 54.323 241.985 54.1396C241.985 54.1396 237.607 53.7761 234.95 54.9413C234.95 54.9413 237.287 52.2542 242.789 53.4772L245.865 50.9939C245.865 50.9939 240.099 50.216 237.652 51.0755C237.652 51.0755 240.466 48.6975 246.694 50.43L250.041 48.4529C250.041 48.4529 245.123 47.4066 242.195 47.7735C242.195 47.7735 245.288 46.1259 251.024 47.9128L253.43 46.8495C253.43 46.8495 249.828 46.1497 248.773 46.0376C247.718 45.9255 247.663 45.6402 247.663 45.6402C249.945 45.2641 252.287 45.5216 254.43 46.3841C254.43 46.3841 259.509 44.5123 259.423 44.1964Z" fill="#83CEC5"/>
<path d="M229.802 34.9167C229.802 34.9167 216.521 34.1343 218.073 43.2432C218.073 43.2432 217.762 44.8524 219.254 45.5836C219.254 45.5836 219.279 44.9002 220.621 45.136C221.097 45.2144 221.582 45.2374 222.064 45.2043C222.716 45.1622 223.336 44.9126 223.829 44.4937C223.829 44.4937 227.569 42.9835 229.023 37.0111C229.023 37.0111 230.096 35.7094 230.054 35.3746L227.81 36.3107C227.81 36.3107 228.575 37.8926 227.974 39.2081C227.974 39.2081 227.901 36.3688 227.471 36.4337C227.384 36.4337 226.304 36.9838 226.304 36.9838C226.304 36.9838 227.625 39.7411 226.629 41.7432C226.629 41.7432 227.006 38.3471 225.891 37.182L224.311 38.0976C224.311 38.0976 225.853 40.9437 224.808 43.2671C224.808 43.2671 225.077 39.7035 223.979 38.3163L222.55 39.4096C222.55 39.4096 223.997 42.2147 223.116 44.1417C223.116 44.1417 222.997 39.9939 222.239 39.6796C222.239 39.6796 220.988 40.7592 220.795 41.2034C220.795 41.2034 221.788 43.2534 221.173 44.316C221.173 44.316 220.795 41.5519 220.474 41.5382C220.474 41.5382 219.226 43.3696 219.097 44.6132C219.159 43.4537 219.53 42.3301 220.173 41.3537C219.453 41.4871 218.789 41.8231 218.262 42.3207C218.262 42.3207 218.457 41.0257 220.481 40.913C220.481 40.913 221.529 39.5224 221.788 39.437C221.788 39.437 219.775 39.273 218.555 39.8026C218.555 39.8026 219.628 38.5828 222.155 39.1363L223.553 38.0088C223.553 38.0088 220.9 37.6671 219.778 38.0464C219.778 38.0464 221.072 36.9667 223.934 37.7526L225.472 36.854C225.472 36.854 223.211 36.3791 221.865 36.5499C221.865 36.5499 223.287 35.8016 225.923 36.6114L227.024 36.1296C227.024 36.1296 225.367 35.8119 224.881 35.7606C224.395 35.7094 224.371 35.5796 224.371 35.5796C225.42 35.4089 226.497 35.5272 227.481 35.9212C227.481 35.9212 229.844 35.0602 229.802 34.9167Z" fill="#83CEC5"/>
<path opacity="0.1" d="M208.688 78.3472H136.751V230.055H208.688V78.3472Z" fill="black"/>
<path d="M206.49 272.807C206.49 272.807 204.793 268.88 204.035 267.069C203.607 266.032 202.884 265.859 202.331 265.883L202.363 265.537L202.498 263.902L202.526 263.557C203.837 263.283 204.96 263.069 204.96 263.069L204.143 221.13C204.143 221.13 203.795 220.687 202.954 218.018C202.536 216.687 200.52 215.052 198.635 213.749C198.339 213.545 198.051 213.351 197.766 213.165C198.452 212.593 199.173 212.064 199.925 211.581C200.996 210.963 201.351 207.433 201.351 207.433L201.173 207.779C201.351 207.433 201.173 198.421 201.173 198.421L200.547 189.066C200.547 189.066 200.102 177.946 196.625 175.031C193.148 172.117 188.756 171.097 188.756 171.097L186.322 170.475L181.836 169.331C181.711 169.127 181.589 168.913 181.488 168.688C181.443 168.601 181.401 168.512 181.359 168.422C182.73 167.457 183.848 166.18 184.619 164.697C185.39 163.215 185.793 161.57 185.793 159.9C185.794 159.34 185.748 158.78 185.657 158.227C185.657 158.123 185.619 158.016 185.598 157.913C185.967 157.662 186.316 157.383 186.641 157.079C187.173 156.659 187.607 156.129 187.914 155.527C187.962 155.409 188.002 155.288 188.032 155.164C188.032 155.13 188.032 155.095 188.053 155.057C188.074 155.019 188.085 154.874 188.095 154.781C188.095 154.746 188.095 154.711 188.095 154.677C188.095 154.577 188.095 154.473 188.095 154.373C188.095 154.348 188.095 154.324 188.095 154.297C188.095 154.183 188.078 154.068 188.06 153.951C188.062 153.944 188.062 153.937 188.06 153.93C187.997 153.529 187.892 153.135 187.747 152.755C187.399 151.863 186.947 151.026 186.784 150.076C186.582 148.952 186.815 147.725 186.276 146.716C186.053 146.334 185.747 146.006 185.381 145.756C185.014 145.505 184.597 145.338 184.159 145.267C183.276 145.132 182.373 145.234 181.544 145.564C181.138 145.756 180.701 145.873 180.253 145.91C179.928 145.891 179.609 145.814 179.311 145.682C178.279 145.279 177.298 144.756 176.39 144.123C175.737 143.61 175.038 143.157 174.304 142.768C173.935 142.576 173.527 142.468 173.111 142.452C172.695 142.435 172.281 142.51 171.897 142.671C170.611 143.321 170.367 145.132 169.171 145.931C168.347 146.484 167.272 146.429 166.278 146.463C165.283 146.498 164.157 146.743 163.666 147.601C163.319 148.195 163.402 148.904 163.468 149.599L163.489 149.834C163.489 149.917 163.489 150.003 163.51 150.086C163.565 150.975 163.431 151.865 163.117 152.7C162.637 153.965 161.726 155.213 161.757 156.502C161.76 156.707 161.787 156.912 161.837 157.111C161.865 157.21 161.897 157.308 161.935 157.404C162.126 157.832 162.341 158.248 162.578 158.652L162.609 158.708C162.634 158.756 162.658 158.804 162.679 158.853C162.7 158.901 162.741 158.984 162.766 159.05C162.79 159.116 162.794 159.116 162.804 159.147C162.815 159.178 162.849 159.275 162.867 159.34C162.924 159.535 162.949 159.739 162.94 159.942C162.899 160.204 162.877 160.468 162.874 160.733C162.875 160.866 162.922 160.994 163.007 161.097C163.091 161.2 163.209 161.27 163.34 161.297C163.483 161.293 163.623 161.25 163.743 161.172C164.055 160.996 164.352 160.793 164.63 160.568C164.63 160.678 164.63 160.789 164.651 160.913C164.893 163.387 166.013 165.695 167.811 167.423C167.811 167.53 167.811 167.64 167.787 167.768C167.763 167.896 167.77 168.017 167.763 168.145L163.868 169.362C163.868 169.362 163.889 169.431 163.931 169.549L163.52 169.711C161.5 170.523 159.25 171.533 157.991 172.449C157.435 172.85 156.927 173.178 156.472 173.452C154.818 174.458 153.55 175.985 152.869 177.79L152.817 177.921C152.469 178.713 150.765 184.099 150.765 184.099C150.765 184.099 149.517 187.099 149.336 189.042C149.336 189.042 147.285 195.483 147.82 199.721C147.82 199.721 146.214 205.812 146.84 206.78C146.84 206.78 146.2 209.4 149.009 212.038C148.804 212.162 148.582 212.297 148.349 212.446C146.172 213.808 143.032 216.017 142.496 217.721C141.665 220.372 141.307 220.832 141.307 220.832L140.465 262.706C140.465 262.706 141.589 262.92 142.9 263.19L142.927 263.536L143.063 265.167L143.094 265.513C142.541 265.489 141.818 265.679 141.39 266.702C140.629 268.51 138.956 272.434 138.956 272.434C138.956 272.434 135.211 275.891 137.482 279.099C137.582 279.245 137.699 279.38 137.83 279.5C139.461 280.973 142.938 280.029 145.41 279.068C146.667 278.535 147.75 277.666 148.54 276.558C148.64 276.428 148.765 276.32 148.909 276.241C149.052 276.162 149.211 276.113 149.374 276.098C149.941 276.007 150.476 275.775 150.929 275.424C151.201 275.226 151.422 274.966 151.571 274.665C151.72 274.364 151.793 274.031 151.784 273.696C151.783 273.678 151.783 273.661 151.784 273.644L151.565 268.725C151.565 268.725 151.297 265.288 150.446 265.51L150.226 265.562L150.167 265.216L150.053 264.549L149.993 264.203H150.466C150.466 264.203 150.585 260.317 152.014 257.261C153.443 254.206 154.382 229.52 154.382 229.52C154.382 229.52 172.071 229.806 172.662 228.158C173.01 228.158 173.389 228.158 173.751 228.133C174.345 229.782 191.04 229.862 191.04 229.862C191.04 229.862 191.99 254.575 193.415 257.635C193.716 258.29 193.966 258.967 194.163 259.661C194.612 261.264 194.881 262.911 194.966 264.573H195.439L195.377 264.919L195.262 265.582L195.203 265.928L194.977 265.876C194.132 265.658 193.864 269.095 193.864 269.095L193.638 274.045C193.62 274.379 193.687 274.712 193.831 275.013C193.976 275.315 194.194 275.576 194.465 275.773C194.926 276.132 195.47 276.37 196.048 276.465C196.211 276.478 196.37 276.525 196.514 276.604C196.658 276.683 196.783 276.791 196.882 276.921C197.673 278.028 198.756 278.897 200.012 279.431C202.683 280.468 206.522 281.481 207.947 279.465C210.235 276.25 206.49 272.807 206.49 272.807ZM161.528 211.156H161.57H161.528ZM189.469 197.024C189.469 197.024 189.917 198.701 190.717 199.582C191.517 200.464 191.12 205.94 191.12 205.94C190.806 205.96 190.493 206.009 190.188 206.088C189.573 202.448 189.006 198.407 189.469 197.024Z" fill="url(#paint0_linear)"/>
<path d="M150.996 265.672L144.368 266.379L144.183 264L144.055 262.363L143.874 259.969L150.136 260.323L150.633 263.395L150.739 264.064H150.742L150.996 265.672Z" fill="#8E6F7F"/>
<path d="M201.565 260.682L201.384 263.073L201.259 264.711L201.071 267.092L194.443 266.384L194.706 264.775L194.808 264.11L195.306 261.035L201.565 260.682Z" fill="#8E6F7F"/>
<path d="M194.443 226.928L173.673 227.884C172.728 227.93 171.783 227.93 170.839 227.884L150.996 226.932V211.537H194.443V226.928Z" fill="#5F5570"/>
<path opacity="0.1" d="M194.443 226.928L173.673 227.884C172.728 227.93 171.783 227.93 170.839 227.884L150.996 226.932V211.537H194.443V226.928Z" fill="black"/>
<path d="M167.974 168.802C167.974 168.802 161.152 171.128 158.584 173.04C158.05 173.436 157.557 173.763 157.125 174.031C155.539 175.024 154.325 176.526 153.676 178.3C153.659 178.349 153.642 178.39 153.625 178.428C153.283 179.211 151.656 184.512 151.656 184.512C151.656 184.512 150.457 187.467 150.286 189.379C150.115 191.291 160.046 196.419 160.046 196.419C160.046 196.419 155.252 207.022 157.392 209.716C159.532 212.41 190.782 213.714 190.097 209.716C189.412 205.718 188.213 199.113 188.813 197.288L199.429 189.466C199.429 189.466 199.001 178.515 195.662 175.647C192.323 172.779 188.128 171.736 188.128 171.736L181.481 169.998C181.481 169.998 179.138 175.908 176.57 176.69C174.001 177.472 168.375 173.86 167.974 168.802Z" fill="#EAEAF2"/>
<path opacity="0.1" d="M177.321 178.773C177.321 178.773 174.452 181.232 172.946 178.773C172.946 178.773 171.589 182.931 172.946 184.324L172.895 184.606L172.654 185.845L169.514 212.656L172.098 217.235L176.802 211.176L176.422 186.106L176.252 184.668L176.212 184.32H177.015C177.015 184.32 179.149 180.535 177.321 178.773Z" fill="black"/>
<path opacity="0.1" d="M178.033 178.773C178.033 178.773 175.164 181.232 173.659 178.773C173.659 178.773 172.302 182.931 173.659 184.324L173.608 184.606L173.367 185.845L170.227 212.656L172.811 217.235L177.514 211.176L177.135 186.106L176.965 184.668L176.924 184.32H177.728C177.728 184.32 179.861 180.535 178.033 178.773Z" fill="black"/>
<path d="M177.349 210.573L172.756 216.522L170.227 212.043L173.296 185.657L173.531 184.437L173.584 184.157L173.998 183.047L176.773 184.157L176.813 184.499L176.978 185.914L177.349 210.573Z" fill="#BC8487"/>
<path opacity="0.1" d="M150.996 263.53C149.497 263.52 148.003 263.359 146.534 263.049C145.808 262.858 144.898 262.645 144.068 262.457L143.874 259.969L150.472 260.337L150.996 263.53Z" fill="black"/>
<path d="M172.322 227.49C171.76 229.105 154.955 228.821 154.955 228.821C154.955 228.821 154.054 253.023 152.698 256.021C151.342 259.019 151.227 262.819 151.227 262.819C151.227 262.819 148.292 262.819 146.482 262.359C144.672 261.899 141.737 261.321 141.737 261.321L142.53 220.264C142.53 220.264 142.869 219.832 143.659 217.235C144.167 215.565 147.15 213.401 149.214 212.049C150.366 211.309 151.227 210.825 151.227 210.825L161.253 211.24L167.442 211.495C167.442 211.495 172.888 225.875 172.322 227.49Z" fill="#5F5570"/>
<path opacity="0.1" d="M150.996 265.744L144.07 266.379L143.874 264.243C144.133 264.249 144.389 264.301 144.627 264.395C145.891 265.233 149.502 264.567 150.724 264.3L150.996 265.744Z" fill="black"/>
<path d="M152.419 272.548C152.428 272.888 152.354 273.224 152.206 273.529C152.057 273.834 151.837 274.097 151.565 274.298C151.116 274.653 150.586 274.888 150.023 274.981C149.861 274.995 149.703 275.044 149.561 275.124C149.418 275.204 149.294 275.314 149.197 275.446C148.409 276.567 147.33 277.448 146.078 277.989C143.621 278.962 140.165 279.918 138.545 278.426C138.411 278.306 138.292 278.17 138.19 278.022C135.932 274.759 139.654 271.268 139.654 271.268C139.654 271.268 141.334 267.29 142.089 265.458C142.171 265.22 142.301 265.003 142.472 264.82C142.642 264.636 142.849 264.491 143.079 264.394C143.309 264.297 143.556 264.249 143.806 264.255C144.055 264.261 144.3 264.32 144.525 264.428C145.943 265.458 150.243 264.471 151.083 264.253C151.923 264.034 152.193 267.511 152.193 267.511L152.419 272.495C152.418 272.512 152.418 272.53 152.419 272.548Z" fill="#BC8487"/>
<path opacity="0.1" d="M201.565 260.682L201.371 262.669C200.541 262.819 199.634 262.99 198.902 263.143C197.433 263.391 195.94 263.521 194.443 263.531L194.967 260.976L201.565 260.682Z" fill="black"/>
<path d="M203.702 262.033C203.702 262.033 200.742 262.61 198.918 263.07C197.093 263.53 194.133 263.53 194.133 263.53C194.133 263.53 194.021 259.726 192.654 256.731C191.287 253.736 190.375 229.522 190.375 229.522C190.375 229.522 174.389 229.428 173.818 227.813C173.248 226.198 180.786 212.249 180.786 212.249L185.382 212.007L194.133 211.537C194.133 211.537 195.842 212.477 197.633 213.747C199.423 215.016 201.368 216.628 201.768 217.932C202.564 220.529 202.905 220.961 202.905 220.961L203.702 262.033Z" fill="#5F5570"/>
<path opacity="0.1" d="M201.565 264.243L201.372 267.092L194.443 266.245L194.718 264.319C195.94 264.679 199.537 265.563 200.811 264.446C201.05 264.32 201.306 264.252 201.565 264.243Z" fill="black"/>
<path d="M200.533 265.135C200.748 265.031 200.981 264.975 201.219 264.969C201.457 264.963 201.693 265.008 201.912 265.101C202.132 265.193 202.329 265.332 202.492 265.507C202.654 265.681 202.779 265.889 202.856 266.116C203.572 267.86 205.176 271.651 205.176 271.651C205.176 271.651 208.721 274.972 206.57 278.078C205.22 280.027 201.587 279.049 199.061 278.048C197.867 277.534 196.838 276.695 196.09 275.626C195.997 275.5 195.878 275.395 195.742 275.319C195.606 275.243 195.455 275.196 195.3 275.183C194.751 275.087 194.235 274.852 193.8 274.502C193.545 274.311 193.34 274.059 193.204 273.769C193.068 273.479 193.005 273.16 193.02 272.84L193.233 268.071C193.233 268.071 193.486 264.757 194.287 264.964C195.087 265.172 199.183 266.116 200.533 265.135Z" fill="#BC8487"/>
<path d="M183.047 172.022L176.034 179.282L175.839 179.486L175.586 179.34C174.12 178.492 166.787 174.17 167.416 172.87C167.763 172.131 167.968 170.59 168.076 169.264C168.076 169.104 168.097 168.948 168.111 168.796C168.18 167.747 168.197 166.933 168.197 166.933C168.197 166.933 181.397 164.728 180.876 166.933C180.664 167.825 180.98 168.83 181.428 169.708C181.56 169.963 181.706 170.204 181.849 170.431C182.199 170.995 182.6 171.527 183.047 172.022Z" fill="#FFC4D0"/>
<path opacity="0.1" d="M180.91 169.696C179.014 171.109 176.683 171.793 174.334 171.626C171.985 171.46 169.771 170.453 168.089 168.787C168.156 167.742 168.173 166.93 168.173 166.93C168.173 166.93 180.88 164.732 180.378 166.93C180.184 167.826 180.478 168.82 180.91 169.696Z" fill="black"/>
<path d="M185.183 160.989C185.221 163.716 184.217 166.352 182.383 168.339C180.548 170.326 178.027 171.509 175.352 171.639C172.677 171.769 170.057 170.835 168.045 169.034C166.034 167.233 164.789 164.707 164.572 161.988C164.544 161.657 164.531 161.324 164.531 160.989C164.505 159.592 164.754 158.205 165.261 156.907C165.768 155.61 166.525 154.428 167.486 153.431C168.446 152.435 169.593 151.643 170.857 151.102C172.122 150.562 173.48 150.284 174.851 150.284C176.223 150.284 177.581 150.562 178.846 151.102C180.11 151.643 181.257 152.435 182.217 153.431C183.178 154.428 183.935 155.61 184.442 156.907C184.949 158.205 185.198 159.592 185.172 160.989H185.183Z" fill="#FFC4D0"/>
<path opacity="0.1" d="M185.152 159.05C184.882 159.269 184.568 159.428 184.232 159.519C183.895 159.609 183.543 159.628 183.199 159.575C181.596 159.227 181.046 156.792 179.408 156.625C177.769 156.458 176.68 158.712 175.021 158.667C174.321 158.65 173.691 158.194 173.047 157.877C171.919 157.324 170.064 156.987 168.846 157.404C167.015 158.027 166.395 159.711 165.226 161.05C165.026 161.278 164.807 161.489 164.571 161.68C164.543 161.355 164.529 161.028 164.529 160.699C164.505 158.088 165.478 155.566 167.251 153.64C169.024 151.713 171.465 150.526 174.084 150.317C176.702 150.108 179.304 150.893 181.363 152.513C183.423 154.133 184.788 156.469 185.184 159.05H185.152Z" fill="black"/>
<path d="M172.929 157.867C173.568 158.179 174.179 158.637 174.888 158.654C176.531 158.696 177.604 156.437 179.237 156.614C180.869 156.791 181.408 159.199 183.006 159.557C184.079 159.8 185.09 158.998 185.892 158.252C186.411 157.839 186.834 157.319 187.132 156.728C187.479 155.868 187.299 154.875 186.976 154.001C186.653 153.126 186.198 152.286 186.038 151.366C185.843 150.263 186.069 149.055 185.545 148.063C185.328 147.688 185.03 147.366 184.673 147.119C184.316 146.873 183.909 146.71 183.481 146.64C182.622 146.507 181.743 146.606 180.935 146.928C180.542 147.119 180.117 147.236 179.681 147.275C179.364 147.255 179.052 147.179 178.761 147.049C177.756 146.654 176.803 146.14 175.92 145.519C175.287 145.014 174.609 144.568 173.895 144.186C173.536 143.998 173.139 143.892 172.735 143.876C172.33 143.86 171.926 143.934 171.553 144.093C170.303 144.731 170.063 146.522 168.9 147.296C168.097 147.837 167.052 147.782 166.086 147.82C165.12 147.858 164.002 148.09 163.543 148.934C163.134 149.659 163.339 150.551 163.391 151.38C163.443 152.254 163.311 153.129 163.005 153.948C162.467 155.385 161.373 156.801 161.762 158.286C162.015 159.262 162.89 160.07 162.838 161.063C162.797 161.319 162.775 161.577 162.772 161.837C162.774 161.967 162.819 162.093 162.902 162.194C162.985 162.295 163.1 162.365 163.227 162.392C163.367 162.39 163.502 162.347 163.616 162.267C164.194 161.944 164.712 161.525 165.148 161.028C166.322 159.688 166.93 158.012 168.747 157.391C169.973 156.985 171.81 157.311 172.929 157.867Z" fill="#8E6F7F"/>
<path d="M185.183 218.161L183.303 218.646L178.96 219.778C177.954 220.488 176.823 221.021 175.62 221.352C172.962 221.989 171.245 220.603 169.817 218.458C169.243 217.6 169.532 216.914 170.284 216.376C172.095 215.079 176.574 214.657 177.946 214.828C178.847 214.898 179.753 214.764 180.59 214.439C181.183 214.234 181.756 213.978 182.3 213.673L185.183 218.161Z" fill="#FFC4D0"/>
<path opacity="0.1" d="M185.184 218.174L183.429 218.659C182.926 217.117 182.097 215.182 180.911 214.439C181.465 214.235 181.999 213.978 182.506 213.673L185.184 218.174Z" fill="black"/>
<path opacity="0.1" d="M198.004 213.792C197.234 214.431 196.58 215.013 196.58 215.013C196.58 215.013 187.64 217.89 185.921 221.508C185.921 221.508 184.545 214.449 181.622 214.36C181.622 214.36 184.769 213.093 185.676 212.01L194.49 211.537C194.49 211.537 196.209 212.497 198.004 213.792Z" fill="black"/>
<path d="M197.454 186.608L199.385 189.566L199.973 198.787C199.973 198.787 200.141 207.66 199.973 208.008L200.141 207.66C200.141 207.66 199.805 211.14 198.798 211.749C197.79 212.358 195.523 214.394 195.523 214.394C195.523 214.394 186.789 217.229 185.109 220.796C185.109 220.796 183.766 213.837 180.911 213.75C180.911 213.75 185.193 212.01 185.109 210.879C185.109 210.879 188.385 207.834 188.636 207.051C188.888 206.269 190.524 206.182 190.524 206.182C190.524 206.182 190.904 200.788 190.148 199.918C189.392 199.048 188.972 197.395 188.972 197.395L197.454 186.608Z" fill="#EAEAF2"/>
<path opacity="0.1" d="M175.924 221.357C173.134 221.976 171.332 220.629 169.833 218.545C169.229 217.712 169.533 217.045 170.323 216.522L170.608 216.622C170.608 216.622 175.635 218.533 175.924 221.357Z" fill="black"/>
<path d="M174.445 224.237C171.325 228.567 165.519 222.546 165.085 221.334C164.929 220.894 164.337 220.502 163.654 220.187C162.787 219.809 161.888 219.511 160.967 219.297L166.125 215.098L167.113 215.493L170.154 216.709C170.154 216.709 177.565 219.907 174.445 224.237Z" fill="#FFC4D0"/>
<path opacity="0.1" d="M167.377 215.485C164.416 216.809 163.784 218.713 163.766 220.084C162.863 219.713 161.926 219.421 160.967 219.212L166.341 215.098L167.377 215.485Z" fill="black"/>
<path opacity="0.1" d="M162.718 222.933C162.718 222.933 154.298 216.611 150.263 213.866C149.758 213.525 149.288 213.139 148.859 212.714C150.052 212.002 150.943 211.537 150.943 211.537L161.322 211.936C161.599 212.392 161.764 212.701 161.764 212.701L167.378 216.195C160.613 218.274 162.718 222.933 162.718 222.933Z" fill="black"/>
<path d="M151.585 188.745L149.963 189.687C149.963 189.687 148 195.937 148.512 200.046C148.512 200.046 146.975 205.954 147.573 206.896C147.573 206.896 146.805 210.063 150.732 212.889C154.658 215.714 162.854 222.221 162.854 222.221C162.854 222.221 160.805 217.426 167.378 215.286L161.915 211.69C161.915 211.69 160.081 208.039 158.329 207.238C158.329 207.238 156.963 205.868 157.817 204.926C158.671 203.985 159.354 202.957 159.354 202.015C159.354 201.074 159.695 196.622 159.695 196.622L160.719 191.827L151.585 188.745Z" fill="#EAEAF2"/>
<path opacity="0.1" d="M176.637 184.471H173.133C173.112 184.453 173.093 184.433 173.075 184.411L173.133 184.135L173.582 183.047L176.594 184.135L176.637 184.471Z" fill="black"/>
<path d="M178.036 178.773C178.036 178.773 175.177 180.982 173.676 178.773C173.676 178.773 172.324 182.508 173.676 183.759H177.732C177.732 183.759 179.857 180.356 178.036 178.773Z" fill="#BC8487"/>
<path opacity="0.1" d="M181.664 170.227L185.896 171.376C185.896 171.376 181.886 182.335 181.003 182.335L175.925 179.772L181.664 170.227Z" fill="black"/>
<path opacity="0.1" d="M183.047 172.038L175.683 179.283L175.479 179.486L175.213 179.34L181.65 170.227L181.807 170.467C182.171 171.023 182.585 171.549 183.047 172.038Z" fill="black"/>
<path d="M181.362 170.227L185.896 171.376C185.896 171.376 181.6 182.335 180.653 182.335L175.213 179.772L181.362 170.227Z" fill="#EAEAF2"/>
<path opacity="0.1" d="M167.559 169.514L163.816 170.684C163.816 170.684 167.501 181.739 168.529 182.335L175.212 179.868L167.559 169.514Z" fill="black"/>
<path opacity="0.1" d="M175.925 179.277L175.733 179.486C175.733 179.486 166.729 174.186 167.415 172.709C167.758 171.951 167.96 170.373 168.067 169.014V168.802L175.925 179.277Z" fill="black"/>
<path d="M167.559 168.802L163.816 170.037C163.816 170.037 167.501 181.707 168.529 182.335L175.212 179.732L167.559 168.802Z" fill="#EAEAF2"/>
<path opacity="0.1" d="M158.831 187.6C158.831 187.6 160.875 187.995 160.838 190.3C160.801 192.604 161.68 187.32 161.68 187.32L158.831 187.6Z" fill="black"/>
<path opacity="0.1" d="M159.108 194.443C159.108 194.443 158.484 198.046 159.108 201.303C159.732 204.56 159.677 205.662 160.161 205.837C160.645 206.011 159.108 194.443 159.108 194.443Z" fill="black"/>
<path opacity="0.1" d="M188.745 194.443C188.508 194.467 188.282 194.534 188.08 194.638C187.879 194.743 187.708 194.882 187.579 195.046C187.45 195.21 187.367 195.396 187.335 195.589C187.303 195.783 187.323 195.979 187.394 196.166C187.772 197.708 188.745 194.443 188.745 194.443Z" fill="black"/>
<path opacity="0.1" d="M148.859 206.634C148.859 206.634 156.096 206.286 157.302 207.015C158.508 207.744 148.859 206.634 148.859 206.634Z" fill="black"/>
<path opacity="0.1" d="M191.594 206.89C191.594 206.89 197.365 205.918 198.716 207.263L191.594 206.89Z" fill="black"/>
<path opacity="0.1" d="M194.443 208.712C194.443 208.712 197.573 208.486 198.004 209.4L194.443 208.712Z" fill="black"/>
<path opacity="0.1" d="M153.133 225.069C153.133 225.069 155.492 226.347 155.252 227.651C155.013 228.955 153.133 225.069 153.133 225.069Z" fill="black"/>
<path opacity="0.1" d="M150.996 225.782C150.996 225.782 155.058 230.969 154.506 232.679C153.953 234.389 150.996 225.782 150.996 225.782Z" fill="black"/>
<path opacity="0.1" d="M192.306 226.494C192.306 226.494 190.111 228.054 190.17 229.343L192.306 226.494Z" fill="black"/>
<path opacity="0.1" d="M148.147 257.833C148.147 257.833 148.147 259.274 150.996 261.394L148.147 257.833Z" fill="black"/>
<path opacity="0.1" d="M196.58 254.271C196.58 254.271 196.298 257.087 193.731 258.545L196.58 254.271Z" fill="black"/>
<g opacity="0.1">
<path opacity="0.1" d="M163.724 150.329C163.724 150.09 163.683 149.845 163.662 149.603C163.618 150.13 163.634 150.662 163.71 151.186C163.734 150.901 163.739 150.614 163.724 150.329Z" fill="black"/>
<path opacity="0.1" d="M163.175 159.987C163.227 158.985 162.356 158.179 162.104 157.222C162.091 157.175 162.081 157.128 162.076 157.08C161.997 157.47 162.006 157.873 162.104 158.259C162.307 159.051 162.923 159.728 163.116 160.496C163.134 160.316 163.168 160.153 163.175 159.987Z" fill="black"/>
<path opacity="0.1" d="M187.354 155.67C187.056 156.258 186.635 156.775 186.12 157.187C185.314 157.93 184.315 158.729 183.247 158.487C181.66 158.141 181.114 155.721 179.496 155.556C177.878 155.39 176.803 157.63 175.168 157.585C174.476 157.567 173.854 157.115 173.218 156.8C172.105 156.25 170.276 155.915 169.07 156.33C167.262 156.949 166.65 158.622 165.488 159.953C165.055 160.448 164.54 160.867 163.967 161.19C163.851 161.267 163.715 161.309 163.576 161.311C163.49 161.3 163.408 161.265 163.339 161.21C163.271 161.155 163.219 161.082 163.189 161V161.024C163.148 161.281 163.127 161.539 163.124 161.799C163.125 161.928 163.171 162.053 163.254 162.153C163.336 162.253 163.45 162.322 163.576 162.349C163.715 162.346 163.851 162.304 163.967 162.228C164.54 161.904 165.055 161.485 165.488 160.99C166.657 159.659 167.262 157.986 169.07 157.367C170.29 156.952 172.119 157.287 173.218 157.837C173.854 158.152 174.463 158.605 175.168 158.622C176.803 158.663 177.871 156.413 179.496 156.593C181.121 156.772 181.66 159.165 183.247 159.524C184.315 159.766 185.321 158.968 186.12 158.224C186.635 157.813 187.056 157.295 187.354 156.707C187.546 156.207 187.598 155.664 187.502 155.137C187.473 155.32 187.423 155.498 187.354 155.67Z" fill="black"/>
</g>
<path opacity="0.1" d="M139.6 270.977C139.6 270.977 142.62 269.749 143.874 272.078L139.6 270.977Z" fill="black"/>
<path opacity="0.1" d="M205.126 271.4C205.126 271.4 200.684 271.017 200.858 272.79L205.126 271.4Z" fill="black"/>
<path opacity="0.1" d="M298.787 269.229C304.097 269.229 308.402 268.432 308.402 267.448C308.402 266.465 304.097 265.667 298.787 265.667C293.476 265.667 289.171 266.465 289.171 267.448C289.171 268.432 293.476 269.229 298.787 269.229Z" fill="#83CEC5"/>
<path opacity="0.1" d="M31.339 282.049C36.4527 282.049 40.5982 281.252 40.5982 280.268C40.5982 279.285 36.4527 278.488 31.339 278.488C26.2253 278.488 22.0798 279.285 22.0798 280.268C22.0798 281.252 26.2253 282.049 31.339 282.049Z" fill="#83CEC5"/>
<path opacity="0.1" d="M67.6635 290.596C72.7772 290.596 76.9227 289.799 76.9227 288.815C76.9227 287.832 72.7772 287.035 67.6635 287.035C62.5498 287.035 58.4043 287.832 58.4043 288.815C58.4043 289.799 62.5498 290.596 67.6635 290.596Z" fill="#83CEC5"/>
<path d="M278.131 286.322C285.802 286.322 292.02 285.366 292.02 284.186C292.02 283.005 285.802 282.049 278.131 282.049C270.461 282.049 264.243 283.005 264.243 284.186C264.243 285.366 270.461 286.322 278.131 286.322Z" fill="#83CEC5"/>
<path d="M284.24 280.603C284.874 280.087 285.336 279.391 285.566 278.607C285.739 277.818 285.399 276.884 284.638 276.577C283.786 276.253 282.876 276.842 282.187 277.435C281.498 278.028 280.705 278.707 279.802 278.58C280.267 278.161 280.615 277.629 280.812 277.037C281.009 276.444 281.049 275.81 280.927 275.198C280.886 274.944 280.777 274.706 280.612 274.508C280.141 274.005 279.282 274.219 278.718 274.619C276.918 275.877 276.416 278.314 276.406 280.503C276.222 279.714 276.378 278.89 276.371 278.09C276.364 277.29 276.146 276.367 275.457 275.943C275.032 275.715 274.555 275.604 274.072 275.618C273.262 275.587 272.362 275.67 271.808 276.26C271.116 276.991 271.303 278.218 271.898 279.018C272.494 279.817 273.404 280.331 274.242 280.886C274.912 281.284 275.484 281.827 275.914 282.475C275.966 282.566 276.008 282.662 276.039 282.761H281.096C282.237 282.186 283.294 281.46 284.24 280.603Z" fill="#83CEC5"/>
<path d="M67.7764 249.998C67.7764 249.998 69.6306 252.515 66.9234 256.298C64.2162 260.081 61.9844 263.298 62.8778 265.667C62.8778 265.667 66.9639 258.615 70.2948 258.517C73.6257 258.419 71.4343 254.24 67.7764 249.998Z" fill="#83CEC5"/>
<path opacity="0.1" d="M67.7241 249.998C67.8876 250.241 68.0162 250.508 68.106 250.789C71.3861 254.741 73.1353 258.431 69.9813 258.522C67.0456 258.609 63.5233 263.996 62.6777 265.356C62.705 265.461 62.7391 265.563 62.7766 265.667C62.7766 265.667 66.9092 258.62 70.278 258.522C73.6467 258.424 71.4236 254.237 67.7241 249.998Z" fill="black"/>
<path d="M72.8547 254.279C72.019 254.78 71.2886 255.082 71.2284 254.954C71.1682 254.826 71.7893 254.316 72.6251 253.815C73.4608 253.314 73.1333 253.679 73.1935 253.815C73.2538 253.952 73.6905 253.778 72.8547 254.279Z" fill="#FFD037"/>
<path d="M57.9006 249.998C57.9006 249.998 55.9044 252.515 58.8189 256.298C61.7333 260.081 64.136 263.298 63.1742 265.667C63.1742 265.667 58.7789 258.615 55.1894 258.517C51.5999 258.419 53.9554 254.24 57.9006 249.998Z" fill="#83CEC5"/>
<path opacity="0.1" d="M57.9584 249.998C57.7818 250.242 57.6422 250.508 57.5437 250.789C54.0134 254.741 52.1344 258.431 55.5253 258.522C58.6887 258.609 62.4795 263.996 63.3896 265.356C63.3596 265.462 63.3228 265.566 63.2795 265.667C63.2795 265.667 58.8354 258.62 55.206 258.522C51.5766 258.424 53.9693 254.237 57.9584 249.998Z" fill="black"/>
<path d="M54.1309 253.405C54.1309 254.277 54.2935 254.984 54.4898 254.984C54.6861 254.984 54.8431 254.277 54.8431 253.405C54.8431 252.533 54.6468 252.944 54.4505 252.944C54.2542 252.944 54.1309 252.533 54.1309 253.405Z" fill="#FFD037"/>
<path d="M53.2149 254.279C54.0493 254.78 54.7747 255.082 54.8386 254.954C54.9025 254.826 54.2748 254.316 53.4404 253.815C52.606 253.314 52.9368 253.679 52.8729 253.815C52.809 253.952 52.3805 253.778 53.2149 254.279Z" fill="#FFD037"/>
<path d="M54.8425 265.163C54.8425 265.163 60.2012 264.986 61.8199 263.775C63.4387 262.564 70.0638 261.109 70.4615 263.057C70.8592 265.005 78.5169 272.736 72.4675 272.788C66.4181 272.839 58.408 271.794 56.7962 270.759C55.1844 269.725 54.8425 265.163 54.8425 265.163Z" fill="#A8A8A8"/>
<path opacity="0.2" d="M72.5755 271.45C66.5249 271.498 58.5133 270.522 56.9013 269.556C55.6765 268.816 55.1845 266.172 55.0205 264.955H54.8425C54.8425 264.955 55.1915 269.212 56.7931 270.181C58.3947 271.151 66.4167 272.124 72.4673 272.076C74.212 272.076 74.8156 271.45 74.7842 270.542C74.54 271.099 73.8735 271.44 72.5755 271.45Z" fill="black"/>
<defs>
<linearGradient id="paint0_linear" x1="136.731" y1="211.53" x2="208.695" y2="211.53" gradientUnits="userSpaceOnUse">
<stop stop-color="#808080" stop-opacity="0.25"/>
<stop offset="0.54" stop-color="#808080" stop-opacity="0.12"/>
<stop offset="1" stop-color="#808080" stop-opacity="0.1"/>
</linearGradient>
</defs>
</svg>
